<svg xmlns="http://www.w3.org/2000/svg" viewBox="0 0 1024 1024" fill="none">
      <defs>
        <linearGradient id="surface" x1="176" y1="112" x2="860" y2="968" gradientUnits="userSpaceOnUse">
          <stop stop-color="#172445" />
          <stop offset="1" stop-color="#10172B" />
        </linearGradient>
        <radialGradient id="glowA" cx="0" cy="0" r="1" gradientUnits="userSpaceOnUse" gradientTransform="translate(264 216) rotate(53.3) scale(424 478)">
          <stop stop-color="#8852FF" stop-opacity="0.82" />
          <stop offset="1" stop-color="#8852FF" stop-opacity="0" />
        </radialGradient>
        <radialGradient id="glowB" cx="0" cy="0" r="1" gradientUnits="userSpaceOnUse" gradientTransform="translate(792 766) rotate(128.5) scale(284 324)">
          <stop stop-color="#3FD2FF" stop-opacity="0.95" />
          <stop offset="1" stop-color="#3FD2FF" stop-opacity="0" />
        </radialGradient>
        <filter id="shadow" x="132" y="112" width="736" height="744" color-interpolation-filters="sRGB">
          <feDropShadow dx="0" dy="28" stdDeviation="32" flood-color="#040814" flood-opacity="0.42" />
        </filter>
      </defs>
      <rect x="44" y="44" width="936" height="936" rx="236" fill="url(#surface)" />
      <rect x="44" y="44" width="936" height="936" rx="236" stroke="#FFFFFF26" stroke-width="8" />
      <circle cx="264" cy="216" r="332" fill="url(#glowA)" />
      <circle cx="792" cy="766" r="248" fill="url(#glowB)" />
      <g filter="url(#shadow)">
        <path d="M25.946 44.938c-.664.845-2.021.375-2.021-.698V33.937a2.26 2.26 0 0 0-2.262-2.262H10.287c-.92 0-1.456-1.04-.92-1.788l7.48-10.471c1.07-1.497 0-3.578-1.842-3.578H1.237c-.92 0-1.456-1.04-.92-1.788L10.013.474c.214-.297.556-.474.92-.474h28.894c.92 0 1.456 1.04.92 1.788l-7.48 10.471c-1.07 1.498 0 3.579 1.842 3.579h11.377c.943 0 1.473 1.088.89 1.83L25.947 44.94Z" fill="#F3ECFF" transform="translate(214 150) scale(12.45)" />
      </g>
      <circle cx="748" cy="726" r="88" fill="#4CD2FF" />
      <circle cx="748" cy="726" r="32" fill="#0D1324" fill-opacity="0.22" />
    </svg>
